<?xml version="1.0" encoding="UTF-8" standalone="no"?>
<!-- Created with Inkscape (http://www.inkscape.org/) -->

<svg
   xmlns:dc="http://purl.org/dc/elements/1.1/"
   xmlns:cc="http://creativecommons.org/ns#"
   xmlns:rdf="http://www.w3.org/1999/02/22-rdf-syntax-ns#"
   xmlns:svg="http://www.w3.org/2000/svg"
   xmlns="http://www.w3.org/2000/svg"
   xmlns:sodipodi="http://sodipodi.sourceforge.net/DTD/sodipodi-0.dtd"
   xmlns:inkscape="http://www.inkscape.org/namespaces/inkscape"
   id="svg2"
   sodipodi:docname="car-icon.svg"
   viewBox="0 0 501.17936 257.05984"
   version="1.1"
   inkscape:version="0.48.5 r10040"
   width="100%"
   height="100%">
  <defs
     id="defs24" />
  <sodipodi:namedview
     id="base"
     inkscape:zoom="0.49497476"
     borderopacity="1.0"
     inkscape:current-layer="g3777"
     inkscape:cx="397.62797"
     guidetolerance="3"
     inkscape:window-maximized="0"
     showgrid="true"
     inkscape:guide-bbox="true"
     showguides="true"
     bordercolor="#666666"
     inkscape:window-x="0"
     inkscape:window-y="0"
     objecttolerance="1"
     inkscape:window-width="1680"
     inkscape:pageopacity="0.0"
     inkscape:pageshadow="2"
     pagecolor="#ffffff"
     gridtolerance="1"
     inkscape:snap-from-guide="false"
     inkscape:cy="159.39962"
     inkscape:document-units="px"
     inkscape:window-height="1025"
     fit-margin-top="0"
     fit-margin-left="0"
     fit-margin-right="0"
     fit-margin-bottom="0">
    <sodipodi:guide
       id="guide4755"
       position="-44.514905,566.43481"
       orientation="1,0" />
    <sodipodi:guide
       id="guide4757"
       position="555.4851,686.43481"
       orientation="1,0" />
    <sodipodi:guide
       id="guide4761"
       position="840.37871,741.83604"
       orientation="0,1" />
    <inkscape:grid
       id="grid5833"
       enabled="false"
       visible="true"
       snapvisiblegridlinesonly="true"
       type="xygrid"
       empspacing="50"
       originx="-49.514905px"
       originy="-148.56519px" />
    <sodipodi:guide
       id="guide5842"
       position="651.91365,164.29194"
       orientation="0,1" />
    <sodipodi:guide
       id="guide5844"
       position="455.4851,456.43481"
       orientation="0,1" />
    <sodipodi:guide
       id="guide5846"
       position="355.4851,-143.56519"
       orientation="0,1" />
    <sodipodi:guide
       id="guide5848"
       position="218.34224,232.14909"
       orientation="1,0" />
    <sodipodi:guide
       id="guide5850"
       position="350.4851,401.43481"
       orientation="0,1" />
    <sodipodi:guide
       id="guide5852"
       position="226.91366,265.00623"
       orientation="1,0" />
    <sodipodi:guide
       id="guide5854"
       position="400.4851,-98.565189"
       orientation="0,1" />
  </sodipodi:namedview>
  <g
     transform="translate(-44.514905,-601.73498)"
     inkscape:groupmode="layer"
     inkscape:label="car"
     id="g3777"
     style="display:inline">
    <g
       id="g3824">
      <path
         sodipodi:cx="-109.78469"
         sodipodi:cy="-30.580566"
         transform="matrix(2.1093655,0,0,2.2409782,353.1876,874.40805)"
         d="m -86.497028,-30.580566 a 23.287663,23.287663 0 1 1 -46.575322,0 23.287663,23.287663 0 1 1 46.575322,0 z"
         sodipodi:type="arc"
         style="display:inline;fill:#000000;fill-opacity:1;stroke:none"
         sodipodi:ry="23.287663"
         sodipodi:rx="23.287663"
         id="path3762" />
      <path
         sodipodi:cx="-109.78469"
         sodipodi:cy="-30.580566"
         transform="matrix(2.1093655,0,0,2.2409782,706.69096,875.13805)"
         d="m -86.497028,-30.580566 a 23.287663,23.287663 0 1 1 -46.575322,0 23.287663,23.287663 0 1 1 46.575322,0 z"
         sodipodi:type="arc"
         style="display:inline;fill:#000000;fill-opacity:1;stroke:none"
         sodipodi:ry="23.287663"
         sodipodi:rx="23.287663"
         id="path3766" />
      <path
         inkscape:connector-curvature="0"
         id="path3779"
         transform="translate(-5,397.36)"
         d="M 269.625,204.875 C 190.83129,205.7484 111.48614,244.9625 98.5625,318.5625 69.866943,330.5505 50,360.21725 50,394.90625 c 2.17471,20.332 15.466067,11.10475 24.40625,13.46875 0.0039,-1.86806 0.107301,-3.71119 0.28125,-5.53125 0.0039,-0.0413 -0.004,-0.0838 0,-0.125 0.08683,-0.88881 0.217811,-1.78047 0.34375,-2.65625 0.09074,-0.631 0.201885,-1.25122 0.3125,-1.875 0.05739,-0.32346 0.0936,-0.6473 0.15625,-0.96875 0.02692,-0.13821 0.06586,-0.26842 0.09375,-0.40625 0.859317,-4.24705 2.156284,-8.30155 3.875,-12.125 0.04192,-0.0935 0.0826,-0.18807 0.125,-0.28125 0.353954,-0.77612 0.738416,-1.55711 1.125,-2.3125 0.01488,-0.0291 0.01633,-0.0648 0.03125,-0.0937 0.387687,-0.75434 0.799466,-1.4862 1.21875,-2.21875 0.875283,-1.52925 1.806079,-3.0101 2.8125,-4.4375 0.01319,-0.0187 0.01804,-0.0438 0.03125,-0.0625 0.488276,-0.69067 1.013782,-1.36613 1.53125,-2.03125 0.01408,-0.0181 0.01715,-0.0444 0.03125,-0.0625 0.332149,-0.42583 0.687461,-0.83503 1.03125,-1.25 0.208737,-0.2522 0.412049,-0.50189 0.625,-0.75 0.552279,-0.64301 1.107593,-1.26025 1.6875,-1.875 0.01009,-0.0107 0.02115,-0.0206 0.03125,-0.0312 0.631538,-0.66838 1.274551,-1.33521 1.9375,-1.96875 1.203516,-1.15256 2.448958,-2.21904 3.75,-3.25 0.663195,-0.52506 1.313047,-1.0394 2,-1.53125 0.701397,-0.50342 1.431141,-0.96995 2.15625,-1.4375 1.42774,-0.9206 2.89307,-1.78788 4.40625,-2.5625 0.008,-0.004 0.0229,0.004 0.0312,0 1.51311,-0.77351 3.03516,-1.47531 4.625,-2.09375 0.80863,-0.31455 1.64194,-0.60234 2.46875,-0.875 2.44253,-0.80547 4.94965,-1.42468 7.53125,-1.84375 0.0101,-0.002 0.0212,0.002 0.0312,0 1.71798,-0.27778 3.48126,-0.46725 5.25,-0.5625 0.88956,-0.0479 1.78673,-0.0937 2.6875,-0.0937 0.90077,0 1.79794,0.0458 2.6875,0.0937 1.77912,0.0958 3.52226,0.28204 5.25,0.5625 2.60494,0.42286 5.13054,1.05886 7.59375,1.875 1.62113,0.53713 3.23227,1.14771 4.78125,1.84375 3.12205,1.40291 6.06715,3.10087 8.84375,5.09375 0.0118,0.008 0.0196,0.0229 0.0312,0.0312 0.68201,0.49036 1.37276,1.00806 2.03125,1.53125 1.34543,1.06897 2.63434,2.20728 3.875,3.40625 0.61785,0.59648 1.22225,1.21678 1.8125,1.84375 0.58472,0.62174 1.16221,1.25572 1.71875,1.90625 0.88321,1.03223 1.7225,2.11767 2.53125,3.21875 0.42299,0.57588 0.84827,1.15623 1.25,1.75 0.78364,1.15823 1.5194,2.33981 2.21875,3.5625 0.43589,0.76214 0.84827,1.52684 1.25,2.3125 0.52009,1.01705 1.00803,2.07074 1.46875,3.125 0.6015,1.37639 1.1606,2.78389 1.65625,4.21875 0.29758,0.86147 0.58584,1.71282 0.84375,2.59375 0.25413,0.86802 0.473,1.77051 0.6875,2.65625 0.21171,0.8762 0.42187,1.76387 0.59375,2.65625 0.32615,1.69336 0.57279,3.44167 0.75,5.1875 0.2005,1.97523 0.3125,3.96807 0.3125,6 0,0.8919 -0.0223,1.77459 -0.0625,2.65625 -0.008,0.17842 -0.0215,0.35327 -0.0312,0.53125 -0.039,0.71165 -0.0918,1.42076 -0.15625,2.125 -0.0361,0.39383 -0.0812,0.79611 -0.125,1.1875 -0.14267,1.27331 -0.33998,2.53579 -0.5625,3.78125 -0.0258,0.14428 -0.0357,0.29361 -0.0625,0.4375 -0.089,0.48177 -0.18059,0.96029 -0.28125,1.4375 -0.0442,0.20811 -0.0786,0.41778 -0.125,0.625 -0.0443,0.19894 -0.10999,0.39564 -0.15625,0.59375 -0.11285,0.48082 -0.21945,0.96175 -0.34375,1.4375 -0.0167,0.0639 -0.0456,0.12368 -0.0625,0.1875 -0.14904,0.56376 -0.27225,1.13117 -0.4375,1.6875 0.43918,-1.01646 0.86956,-2.04526 1.25,-3.09375 72.65663,0.44729 123.76515,0.46073 251.84375,0.6875 -0.51403,-2.16995 -0.89098,-4.39314 -1.15625,-6.65625 -0.0499,-0.4185 -0.11526,-0.82862 -0.15625,-1.25 -0.0129,-0.13471 -0.0193,-0.27125 -0.0312,-0.40625 -0.0715,-0.79304 -0.11713,-1.60336 -0.15625,-2.40625 -0.0456,-0.93656 -0.0625,-1.86302 -0.0625,-2.8125 l 0,-0.0312 c 0,-3.81727 0.33976,-7.55602 1.03125,-11.15625 0.002,-0.01 -0.002,-0.0213 0,-0.0312 0.17188,-0.89238 0.38204,-1.78005 0.59375,-2.65625 0.002,-0.01 -0.002,-0.0215 0,-0.0312 0.21215,-0.87602 0.46784,-1.73504 0.71875,-2.59375 0.003,-0.01 -0.003,-0.0217 0,-0.0312 0.50555,-1.72681 1.09412,-3.41263 1.75,-5.0625 0.004,-0.009 -0.004,-0.0224 0,-0.0312 0.65677,-1.64968 1.38901,-3.24899 2.1875,-4.8125 0.004,-0.008 -0.004,-0.0231 0,-0.0312 0.39753,-0.77744 0.81902,-1.52683 1.25,-2.28125 0.004,-0.008 -0.004,-0.0236 0,-0.0312 0.43148,-0.75443 0.91111,-1.48849 1.375,-2.21875 0.005,-0.007 -0.005,-0.024 0,-0.0312 0.93342,-1.46785 1.94205,-2.8868 3,-4.25 0.005,-0.006 -0.005,-0.0249 0,-0.0312 1.05891,-1.36316 2.20014,-2.65703 3.375,-3.90625 0.005,-0.005 -0.005,-0.0258 0,-0.0312 0.5903,-0.62713 1.1946,-1.21585 1.8125,-1.8125 1.85371,-1.78994 3.8238,-3.44284 5.90625,-4.9375 2.08245,-1.49466 4.28081,-2.83197 6.5625,-4 6.84506,-3.50408 14.51809,-5.46875 22.625,-5.46875 5.41851,0 10.61743,0.8719 15.53125,2.5 2.438,0.80778 4.8238,1.80673 7.09375,2.96875 1.97487,1.01096 3.8604,2.14901 5.6875,3.40625 0.59033,0.40621 1.17642,0.81948 1.75,1.25 1.0696,0.80281 2.11685,1.64734 3.125,2.53125 1.30035,1.13816 2.52843,2.32917 3.71875,3.59375 0.58472,0.62174 1.16221,1.25572 1.71875,1.90625 0.55728,0.65085 1.09702,1.32142 1.625,2 0.53182,0.68462 1.06157,1.38213 1.5625,2.09375 1.50015,2.12913 2.85853,4.39951 4.0625,6.75 0.40173,0.78566 0.78977,1.59823 1.15625,2.40625 0.46273,1.02038 0.90797,2.07104 1.3125,3.125 0.47594,1.24001 0.92043,2.49828 1.3125,3.78125 0.13532,0.4428 0.24996,0.89614 0.375,1.34375 0.3699,1.32416 0.69135,2.66768 0.96875,4.03125 0.76978,3.78386 1.18541,7.72157 1.1875,11.75 l 0,0.0312 c 0,0.95037 -0.0174,1.87579 -0.0625,2.8125 -0.0453,0.94109 -0.12953,1.88469 -0.21875,2.8125 -0.0825,0.85774 -0.16259,1.71568 -0.28125,2.5625 -0.0101,0.0725 -0.0208,0.14632 -0.0312,0.21875 -0.008,0.0524 -0.0236,0.10387 -0.0312,0.15625 -0.035,0.23873 -0.0561,0.48087 -0.0937,0.71875 1.10872,-4.0116 1.79302,-8.20245 2.03125,-12.53125 0.0761,2.745 0.0814,5.5771 -0.0625,8.5 l 3.6875,0.65625 c 3.38103,-9.3601 14.00819,-32.438 12.8749,-50.813 C 548.99105,346 537.23258,330.418 521.84375,320.875 497.48369,307.745 470.87589,303.58 444.125,299.5 c -8.34907,-1.84 -10.90623,-2.30325 -13.25,-4.65625 -22.61872,-61.658 -91.71839,-90.73975 -161.25,-89.96875 z m 7.21875,8.5625 c 62.46922,0.66187 123.53854,27.53211 143.875,82.96875 0.27023,0.27129 0.55732,0.52729 0.84375,0.75 l -144.1875,0 -0.53125,-83.71875 z m -9,0.0937 0,83.625 -147.59375,0 c 21.4253,-53.08123 84.2554,-81.7484 147.59375,-83.625 z"
         style="fill:#dc7304;fill-opacity:1;fill-rule:evenodd;stroke:#dc7304;stroke-width:0.9701907;stroke-opacity:1" />
    </g>
  </g>
  <metadata
     id="metadata22">
    <rdf:RDF>
      <cc:Work>
        <dc:format>image/svg+xml</dc:format>
        <dc:type
           rdf:resource="http://purl.org/dc/dcmitype/StillImage" />
        <cc:license
           rdf:resource="http://creativecommons.org/licenses/publicdomain/" />
        <dc:publisher>
          <cc:Agent
             rdf:about="http://openclipart.org/">
            <dc:title>Openclipart</dc:title>
          </cc:Agent>
        </dc:publisher>
        <dc:title></dc:title>
        <dc:date>2012-06-03T04:30:35</dc:date>
        <dc:description />
        <dc:source>https://openclipart.org/detail/170364/eco-green-car-icon-by-cybergedeon-170364</dc:source>
        <dc:creator>
          <cc:Agent>
            <dc:title>dominiquechappard</dc:title>
          </cc:Agent>
        </dc:creator>
        <dc:subject>
          <rdf:Bag>
            <rdf:li>car</rdf:li>
            <rdf:li>ecology</rdf:li>
            <rdf:li>green</rdf:li>
            <rdf:li>icon</rdf:li>
          </rdf:Bag>
        </dc:subject>
      </cc:Work>
      <cc:License
         rdf:about="http://creativecommons.org/licenses/publicdomain/">
        <cc:permits
           rdf:resource="http://creativecommons.org/ns#Reproduction" />
        <cc:permits
           rdf:resource="http://creativecommons.org/ns#Distribution" />
        <cc:permits
           rdf:resource="http://creativecommons.org/ns#DerivativeWorks" />
      </cc:License>
    </rdf:RDF>
  </metadata>
</svg>
